# xmcd CD database file
#
# Track frame offsets:
#	150
#	15753
#	47635
#	68068
#	92985
#	113523
#	129704
#	157548
#	178519
#	202094
#	229066
#
# Disc length: 3700 seconds
#
# Revision: 3
# Processed by: cddbd v1.5.2PL0 Copyright (c) Steve Scherf et al.
# Submitted via: CDex 1.51
#
DISCID=800e720b
DTITLE=Ten Years After - (2005) Now
DYEAR=2005
DGENRE=Rock
TTITLE0=When It All Falls Down
TTITLE1=A Hundred Miles High
TTITLE2=Time To Kill
TTITLE3=Make It Easy For You
TTITLE4=Voice Inside Your Head
TTITLE5=King Of The Blues
TTITLE6=Long Time Running
TTITLE7=Reasons  Why
TTITLE8=Changes
TTITLE9=Change The World
TTITLE10=Going Home (live)
EXTD=YEAR: 2005
EXTT0=
EXTT1=
EXTT2=
EXTT3=
EXTT4=
EXTT5=
EXTT6=
EXTT7=
EXTT8=
EXTT9=
EXTT10=
PLAYORDER=
